<svg width="366" height="56" viewBox="0 0 366 56" fill="none" xmlns="http://www.w3.org/2000/svg">
<path d="M30.464 44.056C30.896 43.48 31.424 43.288 32.048 43.48C32.672 43.672 32.96 44.128 32.912 44.848C32.672 47.344 31.232 49.792 28.592 52.192C25.952 54.544 22.52 55.72 18.296 55.72C13.208 55.72 9.032 54.04 5.768 50.68C2.504 47.32 0.872 42.904 0.872 37.432C0.872 32.296 2.576 28.072 5.984 24.76C9.392 21.4 13.496 19.72 18.296 19.72C22.664 19.72 26.024 20.752 28.376 22.816C30.728 24.88 31.904 27.256 31.904 29.944C31.904 32.152 30.848 33.736 28.736 34.696L12.752 41.968C14.72 46.144 17.888 48.232 22.256 48.232C24.08 48.232 25.712 47.848 27.152 47.08C28.64 46.264 29.744 45.256 30.464 44.056ZM17 22.888C15.128 22.888 13.64 23.8 12.536 25.624C11.432 27.4 10.88 29.68 10.88 32.464C10.88 34.816 11.12 36.88 11.6 38.656L20.888 33.976C22.136 33.352 22.76 32.224 22.76 30.592C22.76 28.96 22.232 27.28 21.176 25.552C20.12 23.776 18.728 22.888 17 22.888ZM70.3672 48.016C70.4632 49.168 70.9192 50.248 71.7352 51.256C72.5512 52.264 72.9592 53.032 72.9592 53.56V53.848C72.9592 54.664 72.4072 55.072 71.3032 55.072H58.8472C57.7432 55.072 57.1912 54.664 57.1912 53.848V53.56C57.1912 53.08 57.6232 52.336 58.4872 51.328C59.3992 50.32 59.8312 49.216 59.7832 48.016L59.0632 34.696C58.7272 27.448 56.6392 23.824 52.7992 23.824C50.8792 23.824 49.3672 24.544 48.2632 25.984C47.2072 27.424 46.6792 29.344 46.6792 31.744V48.088C46.6792 49.24 47.1832 50.32 48.1912 51.328C49.2472 52.336 49.7752 53.08 49.7752 53.56V53.848C49.7752 54.664 49.2232 55.072 48.1192 55.072H34.7272C33.6232 55.072 33.0712 54.664 33.0712 53.848V53.56C33.0712 53.08 33.5752 52.336 34.5832 51.328C35.6392 50.32 36.1672 49.24 36.1672 48.088V31.312C36.1672 30.592 35.9752 29.944 35.5912 29.368C35.2552 28.792 34.8472 28.384 34.3672 28.144C33.9352 27.856 33.5272 27.52 33.1432 27.136C32.8072 26.752 32.6392 26.368 32.6392 25.984V25.696C32.6392 25.168 33.1192 24.664 34.0792 24.184L42.6472 20.008C43.4632 19.624 44.0632 19.6 44.4472 19.936C44.8792 20.224 45.0952 20.752 45.0952 21.52V25.552C47.1592 21.664 50.7112 19.72 55.7512 19.72C59.3992 19.72 62.4952 20.944 65.0392 23.392C67.6312 25.84 69.1192 29.728 69.5032 35.056L70.3672 48.016ZM86.0317 13.6C84.7837 14.752 83.1037 15.328 80.9917 15.328C78.8797 15.328 77.1517 14.752 75.8077 13.6C74.5117 12.4 73.8637 10.864 73.8637 8.992C73.8637 7.168 74.5117 5.68 75.8077 4.528C77.1517 3.328 78.8797 2.728 80.9917 2.728C83.1037 2.728 84.7837 3.328 86.0317 4.528C87.3277 5.68 87.9757 7.168 87.9757 8.992C87.9757 10.864 87.3277 12.4 86.0317 13.6ZM74.4397 55C73.3837 55 72.8557 54.592 72.8557 53.776V53.488C72.8557 53.008 73.3117 52.264 74.2237 51.256C75.1357 50.248 75.5917 49.168 75.5917 48.016V31.744C75.5917 30.544 75.1357 29.416 74.2237 28.36C73.3117 27.304 72.8557 26.584 72.8557 26.2V25.984C72.8557 25.504 73.3597 25 74.3677 24.472L83.3677 20.008C84.2797 19.624 84.9997 19.6 85.5277 19.936C86.0557 20.224 86.3197 20.728 86.3197 21.448V48.016C86.3197 49.168 86.8237 50.248 87.8317 51.256C88.8397 52.264 89.3437 53.008 89.3437 53.488V53.776C89.3437 54.592 88.7917 55 87.6877 55H74.4397ZM130.251 44.056C130.683 43.48 131.211 43.288 131.836 43.48C132.46 43.672 132.748 44.128 132.699 44.848C132.459 47.344 131.019 49.792 128.379 52.192C125.739 54.544 122.307 55.72 118.083 55.72C112.995 55.72 108.819 54.04 105.555 50.68C102.291 47.32 100.659 42.904 100.659 37.432C100.659 32.296 102.363 28.072 105.771 24.76C109.179 21.4 113.283 19.72 118.083 19.72C122.451 19.72 125.812 20.752 128.164 22.816C130.515 24.88 131.691 27.256 131.691 29.944C131.691 32.152 130.635 33.736 128.523 34.696L112.539 41.968C114.507 46.144 117.675 48.232 122.043 48.232C123.868 48.232 125.5 47.848 126.94 47.08C128.428 46.264 129.531 45.256 130.251 44.056ZM116.787 22.888C114.915 22.888 113.427 23.8 112.323 25.624C111.219 27.4 110.667 29.68 110.667 32.464C110.667 34.816 110.907 36.88 111.387 38.656L120.675 33.976C121.923 33.352 122.547 32.224 122.547 30.592C122.547 28.96 122.019 27.28 120.964 25.552C119.907 23.776 118.515 22.888 116.787 22.888ZM170.155 48.016C170.251 49.168 170.707 50.248 171.523 51.256C172.339 52.264 172.747 53.032 172.747 53.56V53.848C172.747 54.664 172.195 55.072 171.091 55.072H158.635C157.531 55.072 156.979 54.664 156.979 53.848V53.56C156.979 53.08 157.411 52.336 158.275 51.328C159.187 50.32 159.619 49.216 159.571 48.016L158.851 34.696C158.515 27.448 156.427 23.824 152.587 23.824C150.667 23.824 149.155 24.544 148.051 25.984C146.995 27.424 146.467 29.344 146.467 31.744V48.088C146.467 49.24 146.971 50.32 147.979 51.328C149.035 52.336 149.563 53.08 149.563 53.56V53.848C149.563 54.664 149.011 55.072 147.907 55.072H134.515C133.411 55.072 132.859 54.664 132.859 53.848V53.56C132.859 53.08 133.363 52.336 134.371 51.328C135.427 50.32 135.955 49.24 135.955 48.088V31.312C135.955 30.592 135.763 29.944 135.379 29.368C135.043 28.792 134.635 28.384 134.155 28.144C133.723 27.856 133.315 27.52 132.931 27.136C132.595 26.752 132.427 26.368 132.427 25.984V25.696C132.427 25.168 132.907 24.664 133.867 24.184L142.435 20.008C143.251 19.624 143.851 19.6 144.235 19.936C144.667 20.224 144.883 20.752 144.883 21.52V25.552C146.947 21.664 150.499 19.72 155.539 19.72C159.187 19.72 162.283 20.944 164.827 23.392C167.419 25.84 168.907 29.728 169.291 35.056L170.155 48.016ZM190.355 55.72C185.027 55.72 180.587 53.944 177.035 50.392C173.531 46.84 171.779 42.592 171.779 37.648C171.779 32.272 173.531 27.952 177.035 24.688C180.587 21.424 184.883 19.768 189.923 19.72C194.051 19.672 197.555 20.632 200.435 22.6C203.363 24.568 204.827 26.968 204.827 29.8C204.827 30.856 204.467 31.744 203.747 32.464C203.027 33.136 201.899 33.448 200.363 33.4C199.211 33.352 198.203 32.944 197.339 32.176C196.475 31.408 195.755 30.52 195.179 29.512C194.651 28.504 194.099 27.496 193.523 26.488C192.947 25.48 192.227 24.64 191.363 23.968C190.499 23.248 189.491 22.888 188.339 22.888C186.323 22.888 184.691 23.8 183.443 25.624C182.243 27.448 181.643 29.728 181.643 32.464C181.643 37.264 182.747 41.104 184.955 43.984C187.211 46.864 190.187 48.304 193.883 48.304C197.675 48.304 200.555 46.624 202.523 43.264C202.811 42.88 203.147 42.664 203.531 42.616C203.963 42.52 204.323 42.616 204.611 42.904C204.947 43.144 205.091 43.504 205.043 43.984C204.803 47.2 203.387 49.96 200.795 52.264C198.251 54.568 194.771 55.72 190.355 55.72ZM242.041 47.944C242.137 49.096 242.593 50.176 243.409 51.184C244.225 52.192 244.633 52.96 244.633 53.488V53.776C244.633 54.592 244.105 55 243.049 55H230.521C229.465 55 228.937 54.592 228.937 53.776V53.488C228.937 53.008 229.369 52.264 230.233 51.256C231.145 50.248 231.577 49.168 231.529 48.016L230.809 34.192C230.473 27.28 228.385 23.824 224.545 23.824C222.625 23.824 221.113 24.544 220.009 25.984C218.953 27.424 218.425 29.344 218.425 31.744V48.088C218.425 49.192 218.929 50.248 219.937 51.256C220.993 52.264 221.521 53.008 221.521 53.488V53.776C221.521 54.592 220.945 55 219.793 55H206.473C205.369 55 204.817 54.592 204.817 53.776V53.488C204.817 53.008 205.321 52.264 206.329 51.256C207.337 50.248 207.841 49.192 207.841 48.088V12.232C207.841 11.08 207.289 10.048 206.185 9.136C205.129 8.224 204.601 7.528 204.601 7.048V6.832C204.601 6.112 205.081 5.512 206.041 5.032L215.545 0.855998C216.361 0.519996 216.985 0.471997 217.417 0.711999C217.897 0.951999 218.137 1.432 218.137 2.152L218.065 23.752C220.321 21.064 223.465 19.72 227.497 19.72C231.145 19.72 234.241 20.92 236.785 23.32C239.329 25.672 240.769 29.392 241.105 34.48L242.041 47.944ZM273.703 44.056C274.135 43.48 274.663 43.288 275.287 43.48C275.911 43.672 276.199 44.128 276.151 44.848C275.911 47.344 274.471 49.792 271.831 52.192C269.191 54.544 265.759 55.72 261.535 55.72C256.447 55.72 252.271 54.04 249.007 50.68C245.743 47.32 244.111 42.904 244.111 37.432C244.111 32.296 245.815 28.072 249.223 24.76C252.631 21.4 256.735 19.72 261.535 19.72C265.903 19.72 269.263 20.752 271.615 22.816C273.967 24.88 275.143 27.256 275.143 29.944C275.143 32.152 274.087 33.736 271.975 34.696L255.991 41.968C257.959 46.144 261.127 48.232 265.495 48.232C267.319 48.232 268.951 47.848 270.391 47.08C271.879 46.264 272.983 45.256 273.703 44.056ZM260.239 22.888C258.367 22.888 256.879 23.8 255.775 25.624C254.671 27.4 254.119 29.68 254.119 32.464C254.119 34.816 254.359 36.88 254.839 38.656L264.127 33.976C265.375 33.352 265.999 32.224 265.999 30.592C265.999 28.96 265.471 27.28 264.415 25.552C263.359 23.776 261.967 22.888 260.239 22.888ZM298.198 19.72C300.262 19.72 301.87 20.344 303.022 21.592C304.222 22.792 304.822 24.352 304.822 26.272C304.822 30.064 303.286 31.96 300.214 31.96C298.966 31.96 297.982 31.648 297.262 31.024C296.59 30.352 296.182 29.632 296.038 28.864C295.894 28.096 295.606 27.4 295.174 26.776C294.742 26.104 294.094 25.768 293.23 25.768C291.934 25.768 290.974 26.536 290.35 28.072C289.726 29.608 289.414 31.48 289.414 33.688V48.088C289.414 48.952 289.702 49.72 290.278 50.392C290.902 51.016 291.502 51.568 292.078 52.048C292.702 52.528 293.014 53.008 293.014 53.488V53.776C293.014 54.592 292.486 55 291.43 55H278.11C277.006 55 276.454 54.592 276.454 53.776V53.488C276.454 53.008 276.91 52.264 277.822 51.256C278.782 50.248 279.262 49.192 279.262 48.088V31.24C279.262 30.088 278.71 29.056 277.606 28.144C276.502 27.232 275.95 26.536 275.95 26.056V25.768C275.95 25.096 276.454 24.52 277.462 24.04L286.102 20.008C287.638 19.288 288.406 19.768 288.406 21.448V26.848C290.038 22.096 293.302 19.72 298.198 19.72ZM332.245 44.056C332.677 43.48 333.205 43.288 333.829 43.48C334.453 43.672 334.741 44.128 334.693 44.848C334.453 47.344 333.013 49.792 330.373 52.192C327.733 54.544 324.301 55.72 320.077 55.72C314.989 55.72 310.813 54.04 307.549 50.68C304.285 47.32 302.653 42.904 302.653 37.432C302.653 32.296 304.357 28.072 307.765 24.76C311.173 21.4 315.277 19.72 320.077 19.72C324.445 19.72 327.805 20.752 330.157 22.816C332.509 24.88 333.685 27.256 333.685 29.944C333.685 32.152 332.629 33.736 330.517 34.696L314.533 41.968C316.501 46.144 319.669 48.232 324.037 48.232C325.861 48.232 327.493 47.848 328.933 47.08C330.421 46.264 331.525 45.256 332.245 44.056ZM318.781 22.888C316.909 22.888 315.421 23.8 314.317 25.624C313.213 27.4 312.661 29.68 312.661 32.464C312.661 34.816 312.901 36.88 313.381 38.656L322.669 33.976C323.917 33.352 324.541 32.224 324.541 30.592C324.541 28.96 324.013 27.28 322.957 25.552C321.901 23.776 320.509 22.888 318.781 22.888ZM349.828 55.648C345.316 55.648 341.62 54.832 338.74 53.2C335.86 51.568 334.42 49.6 334.42 47.296C334.42 46 334.804 45.016 335.572 44.344C336.388 43.672 337.444 43.336 338.74 43.336C340.132 43.336 341.26 43.84 342.124 44.848C342.988 45.808 343.588 46.888 343.924 48.088C344.308 49.288 344.98 50.392 345.94 51.4C346.948 52.36 348.244 52.84 349.828 52.84C351.364 52.84 352.612 52.432 353.572 51.616C354.58 50.8 355.084 49.624 355.084 48.088C355.084 46.36 354.388 44.992 352.996 43.984C351.652 42.976 349.996 42.232 348.028 41.752C346.06 41.224 344.092 40.648 342.124 40.024C340.156 39.352 338.476 38.224 337.084 36.64C335.74 35.008 335.068 32.896 335.068 30.304C335.068 27.232 336.412 24.712 339.1 22.744C341.836 20.728 345.364 19.72 349.684 19.72C354.052 19.72 357.604 20.584 360.34 22.312C363.124 23.992 364.516 26.008 364.516 28.36C364.516 29.416 364.108 30.304 363.292 31.024C362.524 31.744 361.564 32.104 360.412 32.104C359.068 32.104 357.988 31.624 357.172 30.664C356.356 29.656 355.78 28.576 355.444 27.424C355.108 26.224 354.508 25.144 353.644 24.184C352.78 23.176 351.652 22.672 350.26 22.672C348.868 22.672 347.74 23.152 346.876 24.112C346.012 25.024 345.58 26.152 345.58 27.496C345.58 28.84 345.94 29.968 346.66 30.88C347.38 31.792 348.316 32.488 349.468 32.968C350.62 33.448 351.892 33.904 353.284 34.336C354.676 34.72 356.068 35.176 357.46 35.704C358.9 36.184 360.196 36.784 361.348 37.504C362.5 38.224 363.436 39.256 364.156 40.6C364.876 41.896 365.236 43.48 365.236 45.352C365.236 48.328 363.844 50.8 361.06 52.768C358.276 54.688 354.532 55.648 349.828 55.648Z" fill="#71004F"/>
</svg>
